# xmcd
# 
# Track frame offsets:
#     150
#     13832
#     26884
#     39052
#     57083
#     70485
#     82804
#     99011
#     113559
#     128670
# 
# Disc length: 1914
# 
# Revision: 0
# Processed by: cddbd v1.5.2PL0 Copyright (c) Steve Scherf et al.
# Submitted via: BonkEnc v1.0.8
# 
DISCID=6e07780a
DTITLE=John Anderson - Solid Ground
DYEAR=1993
DGENRE=Country
TTITLE0=Money In The Bank
TTITLE1=I've Got It Made
TTITLE2=I Fell In The Water
TTITLE3=Bad Love Gone Good
TTITLE4=All Things To All Things
TTITLE5=Where I Come From
TTITLE6=I Wish I Could Have Been There
TTITLE7=Nashville Tears
TTITLE8=Can't Get Away From You
TTITLE9=Solid Ground
EXTD=
EXTT0=
EXTT1=
EXTT2=
EXTT3=
EXTT4=
EXTT5=
EXTT6=
EXTT7=
EXTT8=
EXTT9=
PLAYORDER=
